<svg width="580" height="400" xmlns="http://www.w3.org/2000/svg">
 <!-- Created with SVG Editor - http://github.com/mzalive/SVG Editor/ -->
 <g>
  <title>background</title>
  <rect fill="#fff" id="canvas_background" height="402" width="582" y="-1" x="-1"/>
  <g display="none" overflow="visible" y="0" x="0" height="100%" width="100%" id="canvasGrid">
   <rect fill="url(#gridpattern)" stroke-width="0" y="0" x="0" height="100%" width="100%"/>
  </g>
 </g>
 <g>
  <title>Layer 1</title>
  <defs>
   <linearGradient y2="1.100938" x2="0.499999" y1="-0.100939" x1="0.499999" id="svg_5">
    <stop stop-color="#BC9CFF"/>
    <stop stop-color="#8BA4F9" offset="1"/>
   </linearGradient>
  </defs>
  <g id="svg_8">
   <path fill="url(#svg_5)" d="m337.742852,270.168006c-13.985338,9.645061 -29.899689,14.467591 -47.743052,14.467591c-17.843363,0 -33.998454,-4.82253 -48.466046,-14.467591c-13.98611,-10.128086 -24.112652,-23.148146 -30.382714,-39.063269l157.697519,0c-6.270061,15.915122 -16.638116,28.935183 -31.105708,39.063269zm-86.082555,-91.869592c-4.339506,4.340277 -9.645061,6.51003 -15.913579,6.51003c-6.270061,0 -11.815586,-2.169753 -16.638116,-6.51003c-4.340277,-4.82253 -6.51003,-10.368055 -6.51003,-16.638116c0,-6.268518 2.169753,-11.574073 6.51003,-15.913579c4.82253,-4.82253 10.368055,-7.234567 16.638116,-7.234567c6.268518,0 11.574073,2.412037 15.913579,7.234567c4.82253,4.339506 7.234567,9.645061 7.234567,15.913579c0,6.270061 -2.412037,11.815586 -7.234567,16.638116zm108.507708,0c-4.341049,4.340277 -9.645061,6.51003 -15.915122,6.51003c-6.268518,0 -11.814814,-2.169753 -16.637344,-6.51003c-4.340277,-4.82253 -6.510802,-10.368055 -6.510802,-16.638116c0,-6.268518 2.170525,-11.574073 6.510802,-15.913579c4.82253,-4.82253 10.368826,-7.234567 16.637344,-7.234567c6.270061,0 11.574073,2.412037 15.915122,7.234567c4.82253,4.339506 7.233024,9.645061 7.233024,15.913579c0,6.270061 -2.410494,11.815586 -7.233024,16.638116zm-157.697519,109.230702c24.595677,24.112652 53.771601,36.168207 87.529314,36.168207c33.757713,0 62.692896,-12.055555 86.805549,-36.168207c24.594906,-24.595677 36.891972,-53.771601 36.891972,-87.529314c0,-33.757713 -12.297067,-62.692896 -36.891972,-86.805549c-24.112652,-24.594906 -53.047835,-36.892358 -86.805549,-36.892358c-33.757713,0 -62.933637,12.297453 -87.529314,36.892358c-24.112267,24.112652 -36.168593,53.047835 -36.168593,86.805549c0,33.757713 12.056326,62.933637 36.168593,87.529314zm-21.701001,-196.03625c30.381556,-30.381942 66.792047,-45.572913 109.230316,-45.572913c42.438268,0 78.607247,15.190971 108.506936,45.572913c30.381942,29.899689 45.573299,66.068668 45.573299,108.506936c0,42.438268 -15.191357,78.848759 -45.573299,109.22993c-29.899689,29.899689 -66.068668,44.850305 -108.506936,44.850305c-42.438268,0 -78.848759,-14.950616 -109.230316,-44.850305c-29.899689,-30.381171 -44.849534,-66.791662 -44.849534,-109.22993c0,-42.438268 14.949845,-78.607247 44.849534,-108.506936z" id="svg_6"/>
  </g>
 </g>
</svg>