<svg width="580" height="400" xmlns="http://www.w3.org/2000/svg">
 <!-- Created with SVG Editor - http://github.com/mzalive/SVG Editor/ -->

 <g>
  <title>background</title>
  <rect fill="#fff" id="canvas_background" height="402" width="582" y="-1" x="-1"/>
  <g display="none" overflow="visible" y="0" x="0" height="100%" width="100%" id="canvasGrid">
   <rect fill="url(#gridpattern)" stroke-width="0" y="0" x="0" height="100%" width="100%"/>
  </g>
 </g>
 <g>
  <title>Layer 1</title>
  <defs>
   <linearGradient y2="1.158025" x2="0.5" y1="-0.106173" x1="0.5" id="svg_4">
    <stop stop-color="#BC9CFF"/>
    <stop stop-color="#8BA4F9" offset="1"/>
   </linearGradient>
  </defs>
  <g id="svg_7">
   <path id="svg_6" fill="url(#svg_4)" d="m397.783948,253.891782l0,-31.104936l-30.382714,0l0,31.104936l30.382714,0zm0,61.48765l0,-30.382714l-30.382714,0l0,30.382714l30.382714,0zm-92.592586,-185.185171l0,-30.382714l-30.382714,0l0,30.382714l30.382714,0zm0,62.209872l0,-31.104936l-30.382714,0l0,31.104936l30.382714,0zm0,61.48765l0,-31.104936l-30.382714,0l0,31.104936l30.382714,0zm0,61.48765l0,-30.382714l-30.382714,0l0,30.382714l30.382714,0zm-92.592586,-122.975299l0,-31.104936l-30.382714,0l0,31.104936l30.382714,0zm0,61.48765l0,-31.104936l-30.382714,0l0,31.104936l30.382714,0zm0,61.48765l0,-30.382714l-30.382714,0l0,30.382714l30.382714,0zm123.697521,-122.975299l92.592586,0l0,154.080235l-277.777757,0l0,-216.290107l92.592586,0l0,-30.382714l46.296293,-46.295907l46.296293,46.295907l0,92.592586z"/>
  </g>
 </g>
</svg>